<svg width="14" height="14" viewBox="0 0 14 14" fill="none" xmlns="http://www.w3.org/2000/svg">
<path d="M7 1.16667C3.79167 1.16667 1.16667 3.79167 1.16667 7C1.16667 10.2083 3.79167 12.8333 7 12.8333C10.2083 12.8333 12.8333 10.2083 12.8333 7C12.8333 3.79167 10.2083 1.16667 7 1.16667ZM7 11.6667C4.42751 11.6667 2.33334 9.5725 2.33334 7C2.33334 4.4275 4.42751 2.33333 7 2.33333C9.5725 2.33333 11.6667 4.4275 11.6667 7C11.6667 9.5725 9.5725 11.6667 7 11.6667ZM9.6775 4.42167L5.83334 8.26583L4.3225 6.76083L3.50001 7.58333L5.83334 9.91667L10.5 5.25L9.6775 4.42167Z" fill="#4F4F4F"/>
</svg>
