<svg width="16" height="12" viewBox="0 0 16 12" fill="none" xmlns="http://www.w3.org/2000/svg">
<path fill-rule="evenodd" clip-rule="evenodd" d="M4 4.5C4.39782 4.5 4.77936 4.34196 5.06066 4.06066C5.34196 3.77936 5.5 3.39782 5.5 3C5.5 2.60218 5.34196 2.22064 5.06066 1.93934C4.77936 1.65804 4.39782 1.5 4 1.5C3.60218 1.5 3.22064 1.65804 2.93934 1.93934C2.65804 2.22064 2.5 2.60218 2.5 3C2.5 3.39782 2.65804 3.77936 2.93934 4.06066C3.22064 4.34196 3.60218 4.5 4 4.5ZM7 3C7.0001 3.79152 6.68739 4.55102 6.13 5.113C6.70273 5.47331 7.17469 5.97302 7.50174 6.56537C7.82878 7.15773 8.00022 7.82336 8 8.5V10C8 10.5304 7.78929 11.0391 7.41421 11.4142C7.03914 11.7893 6.53043 12 6 12H2C1.46957 12 0.960859 11.7893 0.585786 11.4142C0.210714 11.0391 0 10.5304 0 10V8.5C0 7.073 0.747 5.821 1.87 5.113C1.52296 4.7631 1.26746 4.33309 1.12609 3.86099C0.984716 3.38889 0.961825 2.88923 1.05944 2.40618C1.15705 1.92312 1.37216 1.47156 1.68576 1.09139C1.99935 0.711228 2.40178 0.414173 2.85745 0.226484C3.31313 0.0387952 3.80802 -0.0337461 4.2984 0.015272C4.78877 0.0642901 5.25951 0.233358 5.66902 0.507531C6.07853 0.781705 6.41419 1.15254 6.64633 1.58726C6.87846 2.02197 6.99994 2.50718 7 3ZM1.5 8.5C1.5 7.83696 1.76339 7.20107 2.23223 6.73223C2.70107 6.26339 3.33696 6 4 6C4.66304 6 5.29893 6.26339 5.76777 6.73223C6.23661 7.20107 6.5 7.83696 6.5 8.5V10C6.5 10.1326 6.44732 10.2598 6.35355 10.3536C6.25979 10.4473 6.13261 10.5 6 10.5H2C1.86739 10.5 1.74021 10.4473 1.64645 10.3536C1.55268 10.2598 1.5 10.1326 1.5 10V8.5ZM13 8C12.8011 8 12.6103 7.92098 12.4697 7.78033C12.329 7.63968 12.25 7.44891 12.25 7.25V5.75H10.75C10.5511 5.75 10.3603 5.67098 10.2197 5.53033C10.079 5.38968 10 5.19891 10 5C10 4.80109 10.079 4.61032 10.2197 4.46967C10.3603 4.32902 10.5511 4.25 10.75 4.25H12.25V2.75C12.25 2.55109 12.329 2.36032 12.4697 2.21967C12.6103 2.07902 12.8011 2 13 2C13.1989 2 13.3897 2.07902 13.5303 2.21967C13.671 2.36032 13.75 2.55109 13.75 2.75V4.25H15.25C15.4489 4.25 15.6397 4.32902 15.7803 4.46967C15.921 4.61032 16 4.80109 16 5C16 5.19891 15.921 5.38968 15.7803 5.53033C15.6397 5.67098 15.4489 5.75 15.25 5.75H13.75V7.25C13.75 7.44891 13.671 7.63968 13.5303 7.78033C13.3897 7.92098 13.1989 8 13 8Z" fill="#4F4F4F"/>
</svg>
