<svg width="22" height="20" viewBox="0 0 22 20" fill="none" xmlns="http://www.w3.org/2000/svg">
<g clip-path="url(#clip0_386_5)">
<path d="M6.61879 10C5.41343 10.0372 4.42757 10.5134 3.6612 11.4286H2.16567C1.55555 11.4286 1.04215 11.2779 0.625488 10.9766C0.208822 10.6752 0.000488281 10.2344 0.000488281 9.65402C0.000488281 7.02753 0.461798 5.71429 1.38442 5.71429C1.42906 5.71429 1.59089 5.79241 1.86991 5.94866C2.14893 6.10491 2.51165 6.26302 2.95808 6.42299C3.40451 6.58296 3.84721 6.66295 4.2862 6.66295C4.78471 6.66295 5.27951 6.57738 5.77058 6.40625C5.73338 6.68155 5.71477 6.92708 5.71477 7.14286C5.71477 8.17708 6.01611 9.12946 6.61879 10ZM18.5719 17.1094C18.5719 18.0022 18.3003 18.7072 17.7572 19.2243C17.214 19.7414 16.4923 20 15.592 20H5.83754C4.93724 20 4.21552 19.7414 3.67236 19.2243C3.12921 18.7072 2.85763 18.0022 2.85763 17.1094C2.85763 16.715 2.87065 16.33 2.89669 15.9542C2.92274 15.5785 2.97482 15.173 3.05294 14.7377C3.13107 14.3025 3.22966 13.8988 3.3487 13.5268C3.46775 13.1548 3.62772 12.792 3.82861 12.4386C4.02951 12.0852 4.26016 11.7839 4.52058 11.5346C4.78099 11.2853 5.09907 11.0863 5.47482 10.9375C5.85056 10.7887 6.26537 10.7143 6.71924 10.7143C6.79364 10.7143 6.95361 10.7943 7.19915 10.9542C7.44468 11.1142 7.71626 11.2928 8.01388 11.49C8.3115 11.6871 8.70957 11.8657 9.20808 12.0257C9.70659 12.1856 10.2088 12.2656 10.7148 12.2656C11.2207 12.2656 11.723 12.1856 12.2215 12.0257C12.72 11.8657 13.118 11.6871 13.4157 11.49C13.7133 11.2928 13.9849 11.1142 14.2304 10.9542C14.4759 10.7943 14.6359 10.7143 14.7103 10.7143C15.1642 10.7143 15.579 10.7887 15.9547 10.9375C16.3305 11.0863 16.6486 11.2853 16.909 11.5346C17.1694 11.7839 17.4 12.0852 17.6009 12.4386C17.8018 12.792 17.9618 13.1548 18.0808 13.5268C18.1999 13.8988 18.2985 14.3025 18.3766 14.7377C18.4547 15.173 18.5068 15.5785 18.5329 15.9542C18.5589 16.33 18.5719 16.715 18.5719 17.1094ZM7.14335 2.85714C7.14335 3.64583 6.86433 4.3192 6.30629 4.87723C5.74826 5.43527 5.07489 5.71429 4.2862 5.71429C3.49751 5.71429 2.82415 5.43527 2.26611 4.87723C1.70808 4.3192 1.42906 3.64583 1.42906 2.85714C1.42906 2.06845 1.70808 1.39509 2.26611 0.837054C2.82415 0.279018 3.49751 0 4.2862 0C5.07489 0 5.74826 0.279018 6.30629 0.837054C6.86433 1.39509 7.14335 2.06845 7.14335 2.85714ZM15.0005 7.14286C15.0005 8.32589 14.582 9.33594 13.7449 10.173C12.9079 11.01 11.8978 11.4286 10.7148 11.4286C9.53174 11.4286 8.52169 11.01 7.68464 10.173C6.84759 9.33594 6.42906 8.32589 6.42906 7.14286C6.42906 5.95982 6.84759 4.94978 7.68464 4.11272C8.52169 3.27567 9.53174 2.85714 10.7148 2.85714C11.8978 2.85714 12.9079 3.27567 13.7449 4.11272C14.582 4.94978 15.0005 5.95982 15.0005 7.14286ZM21.4291 9.65402C21.4291 10.2344 21.2207 10.6752 20.8041 10.9766C20.3874 11.2779 19.874 11.4286 19.2639 11.4286H17.7683C17.002 10.5134 16.0161 10.0372 14.8108 10C15.4134 9.12946 15.7148 8.17708 15.7148 7.14286C15.7148 6.92708 15.6962 6.68155 15.659 6.40625C16.15 6.57738 16.6448 6.66295 17.1433 6.66295C17.5823 6.66295 18.025 6.58296 18.4715 6.42299C18.9179 6.26302 19.2806 6.10491 19.5596 5.94866C19.8387 5.79241 20.0005 5.71429 20.0451 5.71429C20.9678 5.71429 21.4291 7.02753 21.4291 9.65402ZM20.0005 2.85714C20.0005 3.64583 19.7215 4.3192 19.1634 4.87723C18.6054 5.43527 17.932 5.71429 17.1433 5.71429C16.3547 5.71429 15.6813 5.43527 15.1233 4.87723C14.5652 4.3192 14.2862 3.64583 14.2862 2.85714C14.2862 2.06845 14.5652 1.39509 15.1233 0.837054C15.6813 0.279018 16.3547 0 17.1433 0C17.932 0 18.6054 0.279018 19.1634 0.837054C19.7215 1.39509 20.0005 2.06845 20.0005 2.85714Z" fill="#333333"/>
</g>
<defs>
<clipPath id="clip0_386_5">
<rect width="21.43" height="20" fill="white"/>
</clipPath>
</defs>
</svg>
