<svg width="20" height="20" viewBox="0 0 20 20" fill="none" xmlns="http://www.w3.org/2000/svg">
<path d="M9 16C9 16 8 16 8 15C8 14 9 11 13 11C17 11 18 14 18 15C18 16 17 16 17 16H9ZM13 10C13.7956 10 14.5587 9.68393 15.1213 9.12132C15.6839 8.55871 16 7.79565 16 7C16 6.20435 15.6839 5.44129 15.1213 4.87868C14.5587 4.31607 13.7956 4 13 4C12.2044 4 11.4413 4.31607 10.8787 4.87868C10.3161 5.44129 10 6.20435 10 7C10 7.79565 10.3161 8.55871 10.8787 9.12132C11.4413 9.68393 12.2044 10 13 10ZM7.216 16C7.06776 15.6878 6.99382 15.3455 7 15C7 13.645 7.68 12.25 8.936 11.28C8.30909 11.0868 7.65595 10.9924 7 11C3 11 2 14 2 15C2 16 3 16 3 16H7.216ZM6.5 10C7.16304 10 7.79893 9.73661 8.26777 9.26777C8.73661 8.79893 9 8.16304 9 7.5C9 6.83696 8.73661 6.20107 8.26777 5.73223C7.79893 5.26339 7.16304 5 6.5 5C5.83696 5 5.20107 5.26339 4.73223 5.73223C4.26339 6.20107 4 6.83696 4 7.5C4 8.16304 4.26339 8.79893 4.73223 9.26777C5.20107 9.73661 5.83696 10 6.5 10Z" fill="#6C74CA"/>
</svg>
