<svg width="22" height="22" viewBox="0 0 22 22" fill="none" xmlns="http://www.w3.org/2000/svg">
<g clip-path="url(#clip0_4_2)">
<path fill-rule="evenodd" clip-rule="evenodd" d="M14.6666 8.25C14.6666 9.22246 14.2803 10.1551 13.5927 10.8427C12.9051 11.5304 11.9724 11.9167 11 11.9167C10.0275 11.9167 9.09489 11.5304 8.40725 10.8427C7.71962 10.1551 7.33331 9.22246 7.33331 8.25C7.33331 7.27754 7.71962 6.34491 8.40725 5.65728C9.09489 4.96964 10.0275 4.58333 11 4.58333C11.9724 4.58333 12.9051 4.96964 13.5927 5.65728C14.2803 6.34491 14.6666 7.27754 14.6666 8.25ZM12.8333 8.25C12.8333 8.73623 12.6402 9.20255 12.2963 9.54636C11.9525 9.89018 11.4862 10.0833 11 10.0833C10.5137 10.0833 10.0474 9.89018 9.70362 9.54636C9.3598 9.20255 9.16665 8.73623 9.16665 8.25C9.16665 7.76377 9.3598 7.29745 9.70362 6.95364C10.0474 6.60982 10.5137 6.41667 11 6.41667C11.4862 6.41667 11.9525 6.60982 12.2963 6.95364C12.6402 7.29745 12.8333 7.76377 12.8333 8.25Z" fill="#4F4F4F"/>
<path fill-rule="evenodd" clip-rule="evenodd" d="M11 0.916667C5.43124 0.916667 0.916656 5.43125 0.916656 11C0.916656 16.5688 5.43124 21.0833 11 21.0833C16.5687 21.0833 21.0833 16.5688 21.0833 11C21.0833 5.43125 16.5687 0.916667 11 0.916667ZM2.74999 11C2.74999 12.9158 3.40357 14.6795 4.49899 16.0802C5.26829 15.0699 6.26073 14.2512 7.3988 13.688C8.53688 13.1247 9.78976 12.8322 11.0596 12.8333C12.313 12.8321 13.5501 13.1171 14.6767 13.6664C15.8033 14.2157 16.7896 15.0149 17.5606 16.0032C18.3548 14.9615 18.8896 13.7456 19.1206 12.4562C19.3517 11.1668 19.2724 9.84091 18.8893 8.58824C18.5062 7.33557 17.8303 6.19213 16.9175 5.25253C16.0048 4.31294 14.8814 3.60421 13.6403 3.18497C12.3993 2.76573 11.0763 2.64804 9.7807 2.84164C8.48514 3.03524 7.2543 3.53457 6.19003 4.2983C5.12576 5.06203 4.25865 6.06822 3.66045 7.2336C3.06225 8.39898 2.75016 9.69006 2.74999 11ZM11 19.25C9.10611 19.2528 7.2694 18.6013 5.80066 17.4057C6.39184 16.5593 7.17872 15.8683 8.09433 15.3915C9.00995 14.9146 10.0272 14.6659 11.0596 14.6667C12.0791 14.6659 13.084 14.9083 13.991 15.3738C14.898 15.8393 15.6808 16.5145 16.2745 17.3433C14.7943 18.5778 12.9274 19.2527 11 19.25Z" fill="#4F4F4F"/>
</g>
<defs>
<clipPath id="clip0_4_2">
<rect width="22" height="22" fill="white"/>
</clipPath>
</defs>
</svg>
